<svg width="432" height="125" viewBox="0 0 432 125" fill="none" xmlns="http://www.w3.org/2000/svg">
<g clip-path="url(#clip0_4_64)">
<path d="M132.38 36.24H158.27V122.54H132.38V36.24ZM145.32 0C137.04 0 130.3 6.73 130.3 14.67C130.3 22.61 137.03 29.69 145.32 29.69C153.61 29.69 160.34 22.79 160.34 14.67C160.34 6.55 153.61 0 145.32 0ZM91.64 49.88V36.25H66.44V122.55H92.33V88.38C92.33 71.29 100.27 60.94 114.42 60.94C117.01 60.94 119.77 61.29 120.98 61.63V35.57C120.46 35.4 118.39 35.05 116.49 35.05C106.13 35.05 96.99 38.67 91.64 49.89V49.88ZM25.89 7.77H0V83.19C0 107.01 12.94 123.92 42.29 123.92C46.78 123.92 50.92 123.57 53.85 123.06V100.62C51.61 100.97 49.19 101.14 46.26 101.14C32.63 101.14 25.89 93.72 25.89 80.6V58.34H53.85V36.25H25.89V7.77ZM404.21 48.67V36.24H373.32V7.77H359.51V88.54C359.51 110.8 372.63 123.92 396.27 123.92C398.86 123.92 401.79 123.75 404.21 123.23V110.98C402.48 111.33 399.9 111.5 397.65 111.5C380.74 111.5 373.31 102.35 373.31 86.65V48.68H404.2L404.21 48.67ZM217.46 34.17C204.69 34.17 193.64 39.87 188.64 48.67V36.24H174.83V122.54H188.64V76.46C188.64 58.17 199.69 46.95 215.22 46.95C230.75 46.95 239.73 57.48 239.73 74.05V122.55H253.54V70.94C253.54 49.71 239.56 34.18 217.47 34.18L217.46 34.17ZM348.98 77.49C348.98 78.7 348.98 82.32 348.81 84.22H277.72C279.38 101.15 291.72 112.18 308.07 112.18C321.19 112.18 329.47 106.31 334.82 96.3L346.04 102.34C338.96 116.67 325.67 124.6 308.24 124.6C280.28 124.6 263.88 105.44 263.88 79.38C263.88 53.32 282 34.16 306.86 34.16C331.72 34.16 348.97 52.97 348.97 77.48L348.98 77.49ZM334.65 72.31C333.44 57.47 323.6 46.59 306.86 46.59C291.31 46.59 279.96 57.94 277.87 72.31H334.65Z" fill="white"/>
<path d="M388.85 7.77V20.54H418.88V48.67H432V7.77H388.85Z" fill="#FD5000"/>
<path d="M409.06 118.54H412.29V119.07H410.97V123.08H410.39V119.07H409.07V118.54H409.06ZM417.91 118.54V123.08H417.35V119.55L415.66 123.08H415.26L413.57 119.55V123.08H413.01V118.54H413.71L415.47 122.27L417.23 118.54H417.91Z" fill="white"/>
</g>
<defs>
<clipPath id="clip0_4_64">
<rect width="432" height="124.61" fill="white"/>
</clipPath>
</defs>
</svg>
