<svg xmlns="http://www.w3.org/2000/svg" width="24" height="24" viewBox="0 0 24 24">
    <path fill="#0077BC" fill-rule="evenodd" d="M12,0 C18.6286724,0 24,5.37132756 24,12 C24,18.6286724 18.6286724,24 12,24 C5.37132756,24 0,18.6286724 0,12 C0,5.37132756 5.37132756,0 12,0 Z M12,2 C6.47589706,2 2,6.47589706 2,12 C2,17.5241029 6.47589706,22 12,22 C17.5241029,22 22,17.5241029 22,12 C22,6.47589706 17.5241029,2 12,2 Z M11,11 L7.99539757,11 C7.4556644,11 7,11.4477153 7,12 C7,12.5561352 7.44565467,13 7.99539757,13 L11,13 L11,16.0046024 C11,16.5443356 11.4477153,17 12,17 C12.5561352,17 13,16.5543453 13,16.0046024 L13,13 L16.0046024,13 C16.5443356,13 17,12.5522847 17,12 C17,11.4438648 16.5543453,11 16.0046024,11 L13,11 L13,7.99539757 C13,7.4556644 12.5522847,7 12,7 C11.4438648,7 11,7.44565467 11,7.99539757 L11,11 Z"></path>
</svg>