<svg xmlns="http://www.w3.org/2000/svg" width="16" height="16" viewBox="0 0 16 16"><path fill="#E61b36" fill-rule="evenodd" d="M12 2h2.006A2 2 0 0 1 16 4.006v9.988A2.001 2.001 0 0 1 14.006 16H1.994A2 2 0 0 1 0 13.994V4.006C0 2.898.895 2 1.994 2H4V1c0-.552.444-1 1-1 .552 0 1 .444 1 1v1h4V1c0-.552.444-1 1-1 .552 0 1 .444 1 1v1zm-2 2.002L6 4C6 4.553 5.556 5 5 5c-.552 0-1-.444-1-1H1.994C2.001 4 2 13.994 2 13.994 2 14 14.006 14 14.006 14 13.999 14 14 4.006 14 4.006l-2-.003A.997.997 0 0 1 11 5c-.552 0-1-.443-1-.998zM10 10h2v2h-2v-2zm-3 0h2v2H7v-2zm-3 0h2v2H4v-2zm6-3h2v2h-2V7zM7 7h2v2H7V7zM4 7h2v2H4V7z"/></svg>